<?xml version="1.0" encoding="UTF-8" standalone="no"?>
<!DOCTYPE svg PUBLIC "-//W3C//DTD SVG 1.1//EN" "http://www.w3.org/Graphics/SVG/1.1/DTD/svg11.dtd">
<svg xmlns="http://www.w3.org/2000/svg" xml:lang="en" width="48" height="48" viewBox="0 0 48 48" fill="#6a11cb">
  <path d="M40 32c-2.21 0-4 1.79-4 4v4H8c-2.21 0-4-1.79-4-4V12c0-2.21 1.79-4 4-4h32c2.21 0 4 1.79 4 4v20c0 2.21-1.79 4-4 4zm0-24H8v24h32V8z" fill="#6a11cb"/>
  <circle cx="16" cy="20" r="2" fill="#6a11cb"/>
  <circle cx="24" cy="20" r="2" fill="#6a11cb"/>
  <path d="M16 26c0 2 2 2 4 2s4 0 4-2" fill="none" stroke="#6a11cb" stroke-width="2"/>
</svg>